# xmcd
#
# Track frame offsets:
#	150
#	17074
#	30769
#	44430
#	60282
#	75926
#	93626
#	112046
#	126633
#	143423
#	159584
#	171769
#	191693
#
# Disc length: 2789
#
# Revision: 1
# Processed by: cddbd v1.5.1PL0 Copyright (c) Steve Scherf et al.
# Submitted via: VisiTrax 2.9.5.180 - For more info visit www.synapsa.com
# Normalized: r0:DSETVAR1
#
DISCID=9f0ae30d
DTITLE=Various Artist - CDX 232 January 2000
DYEAR=2000
DGENRE=
TTITLE0=Collin Raye - Couldn't last a moment
TTITLE1=Garth Brooks - Do what you gotta do
TTITLE2=Trace Adkins - More
TTITLE3=Rebecca Lynn Howard - Out here in the water
TTITLE4=Craig Morgan - Something to write home about
TTITLE5=Paul Brandt - That hurts
TTITLE6=Clay Walker - The chain of love
TTITLE7=Faith HIll - The way you love me
TTITLE8=Wade Hayes - Up north
TTITLE9=Kenny Chesney - What I need to do
TTITLE10=Victor Sanz - I'm going to be there
TTITLE11=Groobes - Shut this place down
TTITLE12=Laura Pursell - Am I naive
EXTD=
EXTT0=
EXTT1=
EXTT2=
EXTT3=
EXTT4=
EXTT5=
EXTT6=
EXTT7=
EXTT8=
EXTT9=
EXTT10=
EXTT11=
EXTT12=
PLAYORDER=
